<svg xmlns="http://www.w3.org/2000/svg" xmlns:xlink="http://www.w3.org/1999/xlink" viewBox="0 0 88 63"><defs><path id="b" d="M750.55 97.33c1.29 1.56 8.61 10.77 9.14 11.36.53.6.4 1.08-.58 1.35l-10.9 2.92c3.22 4.34 9.38 12.63 9.9 13.4.72 1.06.07 1.37-.98 1.8-1.05.44-24.4 8.87-26 9.36-2.05.62-2.96.93-4.3-.93-.99-1.4-6.38-11.15-9.02-15.95-5 1.31-14.15 3.71-16.78 4.35-2.58.62-3.68-.93-4.1-1.89-.43-.95-15.6-33.8-16.55-36.05-.96-2.26.09-2.69 1.04-2.77.95-.08 14.32-1.2 16.06-1.27 1.75-.08 1.9.32 2.67 1.46l19.26 32.34 24.22-5.83c-1.34-1.9-7.43-10.58-8.02-11.4-.66-.94.01-1.37 1.09-1.55 1.08-.19 10.34-1.75 11.14-1.86.8-.12 1.42-.4 2.71 1.16zm4.87 10.77c.53-.12.93-.3.7-.6-.23-.3-6.36-8.1-6.81-8.7-.45-.62-.76-.52-1.13-.44-.36.08-8.42 1.54-8.91 1.61-.5.07-.34.35-.14.63l7.1 9.77s8.66-2.16 9.2-2.27zm-1.51 16.83c-.22-.34-7.62-10.48-8.01-11.06-.3-.42-.46-.5-1.15-.28l-23.61 6.17s7.25 12.6 7.8 13.4c.56.82.9.75 1.33.57.44-.19 22.71-7.74 23.4-7.99.67-.25.46-.46.24-.8zm-38.24-7.2c.62-.14.47-.22.16-.76l-18.08-31.35c-.16-.28-.12-.38-.56-.35-.45.02-13.05 1.15-13.26 1.15-.2 0-.22.33 0 .75.23.41 16.27 33.64 16.35 33.89.09.25.09.33.8.16.73-.16 14.3-3.42 14.59-3.49z"/><filter id="a" width="117.5%" height="125.5%" x="-8.8%" y="-9.1%" filterUnits="objectBoundingBox"><feOffset dy="2" in="SourceAlpha" result="shadowOffsetOuter1"/><feGaussianBlur in="shadowOffsetOuter1" result="shadowBlurOuter1" stdDeviation="2"/><feColorMatrix in="shadowBlurOuter1" values="0 0 0 0 0 0 0 0 0 0 0 0 0 0 0 0 0 0 0.209890172 0"/></filter></defs><g fill="none" fill-rule="evenodd" transform="translate(-676 -81)"><use fill="black" filter="url(#a)" xlink:href="#b"/><use fill="#FFFFFF" xlink:href="#b"/></g></svg>